<?xml version="1.0" encoding="utf-8"?>
<!-- Generator: Adobe Illustrator 23.0.2, SVG Export Plug-In . SVG Version: 6.00 Build 0)  -->
<svg version="1.1" id="Ebene_1" xmlns="http://www.w3.org/2000/svg" xmlns:xlink="http://www.w3.org/1999/xlink" x="0px" y="0px"
	 viewBox="0 0 317.4 98.2" style="enable-background:new 0 0 317.4 98.2;" xml:space="preserve">
<style type="text/css">
	.st0{fill:#045986;}
	.st1{fill:#8FB0D2;}
	.st2{fill:#127BAC;}
	.st3{fill:#BACEE7;}
</style>
<path class="st0" d="M141.5,30.3c1.2,0.4,2.1,1.1,2.8,1.9c0.6,0.8,1,1.8,1,2.9c0,1.1-0.3,2.1-1,2.9s-1.6,1.4-2.7,1.7
	c1.4,0.3,2.4,0.9,3.2,1.9c0.8,1,1.2,2.2,1.2,3.5c0,1.2-0.3,2.2-1,3.2c-0.7,0.9-1.6,1.6-2.9,2.1c-1.2,0.5-2.7,0.7-4.4,0.7h-10.6V34.3
	c0-2.6,2.1-4.7,4.7-4.7h5.5C138.9,29.7,140.3,29.9,141.5,30.3z M138.8,37.6c0.5-0.4,0.7-0.9,0.7-1.6c0-0.6-0.2-1.1-0.7-1.5
	c-0.5-0.4-1.1-0.5-1.8-0.5h-4.3v4.1h4.3C137.8,38.2,138.4,38,138.8,37.6z M139.3,46.1c0.6-0.4,0.9-1,0.9-1.7c0-0.7-0.3-1.2-0.9-1.6
	c-0.6-0.4-1.3-0.6-2.3-0.6h-4.3v4.5h4.3C138,46.7,138.7,46.5,139.3,46.1z"/>
<path class="st0" d="M148.7,29.7h16.9v4.5h-11.3v4h10.2v4.4l-10.2,0v4h11.6V48c0,1.7-1.4,3-3,3h-14.1L148.7,29.7L148.7,29.7z"/>
<path class="st0" d="M167.7,29.7h18.9v1.2c0,1.9-1.5,3.4-3.4,3.4h-3.6v16.8h-5.6V34.3h-6.4V29.7z"/>
<path class="st0" d="M202,51.1l-1.5-3.8h-9.2l-1.5,3.8H184l8.2-19.1c0.6-1.4,2-2.3,3.5-2.3h3.2l9,21.4H202z M192.9,43h5.9l-2.9-7.6
	L192.9,43z"/>
<path class="st0" d="M222.7,34.8c-1-0.5-1.9-0.8-2.8-0.8c-1.1,0-2.1,0.3-2.9,0.8c-0.9,0.5-1.6,1.3-2.1,2.2s-0.8,2-0.8,3.2
	s0.2,2.2,0.8,3.2s1.2,1.7,2.1,2.2s1.9,0.8,2.9,0.8c0.9,0,1.8-0.2,2.8-0.7s1.8-1.1,2.6-1.8l3.3,3.5c-1.2,1.2-2.5,2.2-4.1,2.9
	s-3.2,1.1-4.7,1.1c-2.1,0-4-0.5-5.7-1.5s-3-2.3-4-4s-1.5-3.6-1.5-5.7c0-2.1,0.5-4,1.5-5.6c1-1.7,2.4-3,4.1-3.9
	c1.7-1,3.7-1.4,5.8-1.4c1.6,0,3.1,0.3,4.7,1c1.5,0.7,2.9,1.6,3.9,2.7l-3.2,3.9C224.5,36.1,223.7,35.4,222.7,34.8z"/>
<path class="st0" d="M231.9,29.7h5.6v16.6h9v0.4c0,2.4-2,4.4-4.4,4.4h-10.2L231.9,29.7L231.9,29.7z"/>
<path class="st0" d="M264.7,30.8c1.8,1,3.1,2.3,4.2,3.9s1.5,3.5,1.5,5.6c0,2.1-0.5,4-1.5,5.7s-2.4,3-4.2,4s-3.7,1.5-5.9,1.5
	c-2.2,0-4.2-0.5-5.9-1.5c-1.8-1-3.1-2.3-4.1-4c-1-1.7-1.5-3.6-1.5-5.7c0-2.1,0.5-4,1.5-5.6c1-1.7,2.4-3,4.1-3.9s3.7-1.4,5.9-1.4
	C260.9,29.3,262.9,29.8,264.7,30.8z M255.9,34.9c-0.9,0.5-1.6,1.3-2.2,2.3c-0.5,1-0.8,2-0.8,3.2c0,1.2,0.3,2.2,0.8,3.2
	s1.3,1.7,2.2,2.3s1.9,0.8,2.9,0.8s2-0.3,2.9-0.8c0.9-0.6,1.6-1.3,2.1-2.3s0.8-2,0.8-3.2c0-1.2-0.3-2.2-0.8-3.2
	c-0.5-1-1.2-1.7-2.1-2.3s-1.9-0.8-2.9-0.8C257.8,34.1,256.8,34.3,255.9,34.9z"/>
<path class="st0" d="M280,45.5c0.8,0.8,1.8,1.2,3,1.2c1.2,0,2.2-0.4,2.9-1.2c0.7-0.8,1.1-1.9,1.1-3.2v-8.7c0-2.1,1.7-3.9,3.9-3.9
	h1.7v12.6c0,1.9-0.4,3.5-1.2,4.9c-0.8,1.4-1.9,2.5-3.4,3.2c-1.5,0.8-3.2,1.1-5.1,1.1s-3.7-0.4-5.1-1.1c-1.5-0.8-2.6-1.8-3.4-3.2
	c-0.8-1.4-1.2-3-1.2-4.9V29.7h5.6v12.6C278.8,43.6,279.2,44.7,280,45.5z"/>
<path class="st0" d="M311.9,31c1.7,0.9,3.1,2.1,4,3.8c1,1.6,1.4,3.5,1.4,5.6s-0.5,4-1.5,5.6c-1,1.6-2.3,2.9-4.1,3.8
	c-1.8,0.9-3.8,1.3-6.1,1.3h-5.5c-2,0-3.5-1.6-3.5-3.5V29.7h9.2C308.2,29.7,310.2,30.1,311.9,31z M309,45.8c0.8-0.5,1.5-1.2,2-2.2
	c0.5-0.9,0.7-2,0.7-3.2c0-1.2-0.2-2.3-0.8-3.2c-0.5-0.9-1.2-1.7-2.1-2.2s-1.9-0.8-3-0.8h-3.5v12.3h3.8
	C307.2,46.5,308.2,46.3,309,45.8z"/>
<g>
	<path class="st0" d="M132.7,58.1c-0.6-0.2-1.1-0.3-1.6-0.3c-0.7,0-1.2,0.1-1.6,0.4c-0.4,0.3-0.6,0.6-0.6,1.1c0,0.4,0.1,0.7,0.4,1
		c0.2,0.3,0.5,0.5,0.9,0.6c0.4,0.1,0.9,0.3,1.5,0.5c0.8,0.2,1.4,0.5,1.9,0.7s0.9,0.5,1.2,1c0.3,0.4,0.5,1,0.5,1.7
		c0,0.7-0.2,1.2-0.5,1.7c-0.4,0.5-0.9,0.9-1.5,1.1c-0.6,0.3-1.4,0.4-2.2,0.4c-0.9,0-1.7-0.2-2.5-0.5s-1.5-0.8-2.1-1.3l0.7-1.4
		c0.5,0.5,1.2,1,1.9,1.2s1.4,0.4,2,0.4c0.8,0,1.4-0.1,1.8-0.5c0.5-0.3,0.7-0.7,0.7-1.2c0-0.4-0.1-0.8-0.4-1s-0.5-0.5-0.9-0.6
		c-0.4-0.1-0.9-0.3-1.5-0.5c-0.8-0.2-1.4-0.5-1.9-0.7c-0.5-0.2-0.9-0.5-1.2-1c-0.3-0.4-0.5-1-0.5-1.7c0-0.6,0.2-1.2,0.5-1.6
		c0.3-0.5,0.8-0.8,1.4-1.1c0.6-0.2,1.3-0.4,2.2-0.4c0.7,0,1.4,0.1,2,0.3c0.7,0.2,1.3,0.5,1.8,0.8l-0.7,1.4
		C133.9,58.6,133.3,58.3,132.7,58.1z"/>
	<path class="st0" d="M153.3,57.2c0.9,0.5,1.7,1.2,2.2,2.1c0.5,0.9,0.8,1.9,0.8,3c0,1.1-0.3,2.1-0.8,3c-0.5,0.9-1.3,1.6-2.2,2.2
		s-2,0.8-3.1,0.8s-2.1-0.3-3.1-0.8c-0.9-0.5-1.7-1.2-2.2-2.2c-0.5-0.9-0.8-1.9-0.8-3c0-1.1,0.3-2.1,0.8-3c0.5-0.9,1.3-1.6,2.2-2.1
		c0.9-0.5,2-0.8,3.1-0.8C151.4,56.4,152.4,56.6,153.3,57.2z M148,58.4c-0.7,0.4-1.2,0.9-1.6,1.6s-0.6,1.4-0.6,2.2s0.2,1.6,0.6,2.3
		c0.4,0.7,1,1.2,1.6,1.6s1.4,0.6,2.2,0.6s1.5-0.2,2.2-0.6c0.7-0.4,1.2-1,1.6-1.6c0.4-0.7,0.6-1.4,0.6-2.3s-0.2-1.6-0.6-2.2
		c-0.4-0.7-1-1.2-1.6-1.6s-1.4-0.6-2.2-0.6C149.5,57.8,148.7,58,148,58.4z"/>
	<path class="st0" d="M166,56.5h1.6v10.2h5.1v1.4H166L166,56.5L166,56.5z"/>
	<path class="st0" d="M184.2,65.8c0.6,0.6,1.4,0.9,2.5,0.9c1,0,1.8-0.3,2.4-0.9c0.6-0.6,0.9-1.4,0.9-2.5v-6.9h1.6v6.9
		c0,1.5-0.4,2.7-1.3,3.6c-0.9,0.9-2.1,1.3-3.6,1.3c-1.5,0-2.8-0.4-3.6-1.3c-0.9-0.9-1.3-2-1.3-3.6v-6.9h1.6v6.9
		C183.3,64.4,183.6,65.2,184.2,65.8z"/>
	<path class="st0" d="M200.4,56.5h9.1v1.5h-3.8v10.2h-1.6V57.9h-3.7V56.5z"/>
	<path class="st0" d="M218.6,56.5h1.6v11.6h-1.6V56.5z"/>
	<path class="st0" d="M239,57.2c0.9,0.5,1.7,1.2,2.2,2.1c0.5,0.9,0.8,1.9,0.8,3c0,1.1-0.3,2.1-0.8,3c-0.5,0.9-1.3,1.6-2.2,2.2
		s-2,0.8-3.1,0.8s-2.1-0.3-3.1-0.8c-0.9-0.5-1.7-1.2-2.2-2.2c-0.5-0.9-0.8-1.9-0.8-3c0-1.1,0.3-2.1,0.8-3c0.5-0.9,1.3-1.6,2.2-2.1
		c0.9-0.5,2-0.8,3.1-0.8C237.1,56.4,238.1,56.6,239,57.2z M233.7,58.4c-0.7,0.4-1.2,0.9-1.6,1.6s-0.6,1.4-0.6,2.2s0.2,1.6,0.6,2.3
		c0.4,0.7,1,1.2,1.6,1.6s1.4,0.6,2.2,0.6s1.5-0.2,2.2-0.6c0.7-0.4,1.2-1,1.6-1.6c0.4-0.7,0.6-1.4,0.6-2.3s-0.2-1.6-0.6-2.2
		c-0.4-0.7-1-1.2-1.6-1.6s-1.4-0.6-2.2-0.6C235.2,57.8,234.4,58,233.7,58.4z"/>
	<path class="st0" d="M259.9,56.5h1.6v11.6h-1.6l-6.6-9v9h-1.6V56.5h1.6l6.7,9L259.9,56.5L259.9,56.5z"/>
	<path class="st0" d="M277.2,58.1c-0.6-0.2-1.1-0.3-1.6-0.3c-0.7,0-1.2,0.1-1.6,0.4c-0.4,0.3-0.6,0.6-0.6,1.1c0,0.4,0.1,0.7,0.4,1
		c0.2,0.3,0.5,0.5,0.9,0.6c0.3,0.1,0.8,0.3,1.5,0.5c0.8,0.2,1.4,0.5,1.9,0.7s0.9,0.5,1.2,1s0.5,1,0.5,1.7c0,0.7-0.2,1.2-0.5,1.7
		c-0.4,0.5-0.9,0.9-1.5,1.1s-1.4,0.4-2.2,0.4c-0.8,0-1.7-0.2-2.5-0.5s-1.5-0.8-2.1-1.3l0.7-1.4c0.5,0.5,1.2,1,1.9,1.2s1.4,0.4,2,0.4
		c0.8,0,1.4-0.1,1.8-0.5c0.5-0.3,0.7-0.7,0.7-1.2c0-0.4-0.1-0.8-0.4-1s-0.5-0.5-0.9-0.6s-0.9-0.3-1.5-0.5c-0.8-0.2-1.4-0.5-1.9-0.7
		c-0.5-0.2-0.9-0.5-1.2-1c-0.3-0.4-0.5-1-0.5-1.7c0-0.6,0.2-1.2,0.5-1.6c0.3-0.5,0.8-0.8,1.4-1.1c0.6-0.2,1.3-0.4,2.2-0.4
		c0.7,0,1.4,0.1,2,0.3s1.3,0.5,1.8,0.8l-0.7,1.4C278.4,58.6,277.8,58.3,277.2,58.1z"/>
</g>
<polygon class="st1" points="15.9,0 5.3,0 0,9.2 5.3,18.4 15.9,18.4 21.2,9.2 "/>
<polygon class="st0" points="33.5,69.8 22.9,69.8 17.6,79 22.9,88.2 33.5,88.2 38.8,79 "/>
<polygon class="st2" points="33.5,49.8 22.9,49.8 17.6,59.1 22.9,68.2 33.5,68.2 38.8,59.1 "/>
<polygon class="st1" points="33.5,10 22.9,10 17.6,19.2 22.9,28.4 33.5,28.4 38.8,19.2 "/>
<polygon class="st2" points="51.1,39.9 40.5,39.9 35.1,49.1 40.5,58.3 51.1,58.3 56.4,49.1 "/>
<polygon class="st1" points="51.1,19.9 40.5,19.9 35.1,29.1 40.5,38.3 51.1,38.3 56.4,29.1 "/>
<polygon class="st0" points="68.6,69.8 58,69.8 52.7,79 58,88.2 68.6,88.2 74,79 "/>
<polygon class="st2" points="68.6,49.8 58,49.8 52.7,59.1 58,68.2 68.6,68.2 74,59.1 "/>
<polygon class="st1" points="68.6,29.9 58,29.9 52.7,39.1 58,48.3 68.6,48.3 74,39.1 "/>
<polygon class="st3" points="68.6,10 58,10 52.7,19.2 58,28.4 68.6,28.4 74,19.2 "/>
<polygon class="st0" points="86.2,79.8 75.6,79.8 70.3,89 75.6,98.2 86.2,98.2 91.5,89 "/>
<polygon class="st0" points="86.2,59.8 75.6,59.8 70.3,69 75.6,78.2 86.2,78.2 91.5,69 "/>
<polygon class="st2" points="86.2,39.9 75.6,39.9 70.3,49.1 75.6,58.3 86.2,58.3 91.5,49.1 "/>
<polygon class="st0" points="103.8,69.8 93.2,69.8 87.9,79 93.2,88.2 103.8,88.2 109.1,79 "/>
<polygon class="st2" points="103.8,49.8 93.2,49.8 87.9,59.1 93.2,68.2 103.8,68.2 109.1,59.1 "/>
<polygon class="st2" points="103.8,29.9 93.2,29.9 87.9,39.1 93.2,48.3 103.8,48.3 109.1,39.1 "/>
<polygon class="st2" points="121.4,79.8 110.7,79.8 105.4,89 110.7,98.2 121.4,98.2 126.7,89 "/>
<polygon class="st3" points="121.4,0 110.7,0 105.4,9.2 110.7,18.4 121.4,18.4 126.7,9.2 "/>
</svg>
