<?xml version="1.0" encoding="utf-8"?>
<!-- Generator: Adobe Illustrator 23.0.2, SVG Export Plug-In . SVG Version: 6.00 Build 0)  -->
<svg version="1.1" id="Ebene_1" xmlns="http://www.w3.org/2000/svg" xmlns:xlink="http://www.w3.org/1999/xlink" x="0px" y="0px"
	 viewBox="0 0 126.7 98.1" style="enable-background:new 0 0 126.7 98.1;" xml:space="preserve">
<style type="text/css">
	.st0{fill:#8FB0D2;}
	.st1{fill:#045986;}
	.st2{fill:#127BAC;}
	.st3{fill:#BACEE7;}
</style>
<g>
	<polygon class="st0" points="15.9,0 5.3,0 0,9.2 5.3,18.4 15.9,18.4 21.2,9.2 	"/>
	<polygon class="st1" points="33.5,69.8 22.9,69.8 17.6,79 22.9,88.2 33.5,88.2 38.8,79 	"/>
	<polygon class="st2" points="33.5,49.9 22.9,49.9 17.6,59 22.9,68.2 33.5,68.2 38.8,59 	"/>
	<polygon class="st0" points="33.5,10 22.9,10 17.6,19.2 22.9,28.4 33.5,28.4 38.8,19.2 	"/>
	<polygon class="st2" points="51.1,39.9 40.5,39.9 35.2,49.1 40.5,58.3 51.1,58.3 56.4,49.1 	"/>
	<polygon class="st0" points="51.1,19.9 40.5,19.9 35.2,29.1 40.5,38.3 51.1,38.3 56.4,29.1 	"/>
	<polygon class="st1" points="68.6,69.8 58,69.8 52.7,79 58,88.2 68.6,88.2 74,79 	"/>
	<polygon class="st2" points="68.6,49.9 58,49.9 52.7,59 58,68.2 68.6,68.2 74,59 	"/>
	<polygon class="st0" points="68.6,29.9 58,29.9 52.7,39.1 58,48.3 68.6,48.3 74,39.1 	"/>
	<polygon class="st3" points="68.6,10 58,10 52.7,19.2 58,28.4 68.6,28.4 74,19.2 	"/>
	<polygon class="st1" points="86.2,79.8 75.6,79.8 70.3,89 75.6,98.1 86.2,98.1 91.5,89 	"/>
	<polygon class="st1" points="86.2,59.8 75.6,59.8 70.3,69 75.6,78.2 86.2,78.2 91.5,69 	"/>
	<polygon class="st2" points="86.2,39.9 75.6,39.9 70.3,49.1 75.6,58.3 86.2,58.3 91.5,49.1 	"/>
	<polygon class="st1" points="103.8,69.8 93.2,69.8 87.9,79 93.2,88.2 103.8,88.2 109.1,79 	"/>
	<polygon class="st2" points="103.8,49.9 93.2,49.9 87.9,59 93.2,68.2 103.8,68.2 109.1,59 	"/>
	<polygon class="st2" points="103.8,29.9 93.2,29.9 87.9,39.1 93.2,48.3 103.8,48.3 109.1,39.1 	"/>
	<polygon class="st2" points="121.4,79.8 110.8,79.8 105.4,89 110.8,98.1 121.4,98.1 126.7,89 	"/>
	<polygon class="st3" points="121.4,0 110.8,0 105.4,9.2 110.8,18.4 121.4,18.4 126.7,9.2 	"/>
</g>
</svg>
