<?xml version="1.0" encoding="utf-8"?>
<!-- Generator: Adobe Illustrator 23.0.2, SVG Export Plug-In . SVG Version: 6.00 Build 0)  -->
<svg version="1.1" id="Ebene_1" xmlns="http://www.w3.org/2000/svg" xmlns:xlink="http://www.w3.org/1999/xlink" x="0px" y="0px"
	 viewBox="0 0 126.7 98.2" style="enable-background:new 0 0 126.7 98.2;" xml:space="preserve">
<style type="text/css">
	.st0{fill:#E9C53A;}
	.st1{fill:#D1753A;}
	.st2{fill:#DC9F3F;}
	.st3{fill:#A0292A;}
</style>
<g>
	<polygon class="st0" points="110.8,0 121.4,0 126.7,9.2 121.4,18.4 110.8,18.4 105.4,9.2 	"/>
	<polygon class="st1" points="93.2,49.8 103.8,49.8 109.1,59.1 103.8,68.2 93.2,68.2 87.9,59.1 	"/>
	<polygon class="st2" points="93.2,10 103.8,10 109.1,19.2 103.8,28.4 93.2,28.4 87.9,19.2 	"/>
	<polygon class="st1" points="75.6,39.9 86.2,39.9 91.5,49.1 86.2,58.3 75.6,58.3 70.3,49.1 	"/>
	<polygon class="st2" points="75.6,19.9 86.2,19.9 91.5,29.1 86.2,38.3 75.6,38.3 70.3,29.1 	"/>
	<polygon class="st3" points="58,69.8 68.6,69.8 74,79 68.6,88.2 58,88.2 52.7,79 	"/>
	<polygon class="st1" points="58,49.8 68.6,49.8 74,59.1 68.6,68.2 58,68.2 52.7,59.1 	"/>
	<polygon class="st2" points="58,29.9 68.6,29.9 74,39.1 68.6,48.3 58,48.3 52.7,39.1 	"/>
	<polygon class="st2" points="58,10 68.6,10 74,19.2 68.6,28.4 58,28.4 52.7,19.2 	"/>
	<polygon class="st3" points="40.5,79.8 51.1,79.8 56.4,89 51.1,98.2 40.5,98.2 35.2,89 	"/>
	<polygon class="st3" points="40.5,59.8 51.1,59.8 56.4,69 51.1,78.2 40.5,78.2 35.2,69 	"/>
	<polygon class="st1" points="40.5,39.9 51.1,39.9 56.4,49.1 51.1,58.3 40.5,58.3 35.2,49.1 	"/>
	<polygon class="st3" points="22.9,69.8 33.5,69.8 38.8,79 33.5,88.2 22.9,88.2 17.6,79 	"/>
	<polygon class="st1" points="22.9,49.8 33.5,49.8 38.8,59.1 33.5,68.2 22.9,68.2 17.6,59.1 	"/>
	<polygon class="st2" points="22.9,29.9 33.5,29.9 38.8,39.1 33.5,48.3 22.9,48.3 17.6,39.1 	"/>
	<polygon class="st3" points="5.3,79.8 15.9,79.8 21.2,89 15.9,98.2 5.3,98.2 0,89 	"/>
	<polygon class="st0" points="5.3,0 15.9,0 21.2,9.2 15.9,18.4 5.3,18.4 0,9.2 	"/>
</g>
</svg>
