<?xml version="1.0" encoding="utf-8"?>
<!-- Generator: Adobe Illustrator 23.0.2, SVG Export Plug-In . SVG Version: 6.00 Build 0)  -->
<svg version="1.1" id="Ebene_1" xmlns="http://www.w3.org/2000/svg" xmlns:xlink="http://www.w3.org/1999/xlink" x="0px" y="0px"
	 viewBox="0 0 225.9 98.2" style="enable-background:new 0 0 225.9 98.2;" xml:space="preserve">
<style type="text/css">
	.st0{fill:#A0292A;}
	.st1{fill:#E9C53A;}
	.st2{fill:#D1753A;}
	.st3{fill:#DC9F3F;}
</style>
<path class="st0" d="M143.5,40.9c1.8,1,3.1,2.3,4.2,4s1.5,3.5,1.5,5.6s-0.5,4-1.5,5.7s-2.4,3-4.2,4s-3.7,1.5-5.9,1.5
	s-4.2-0.5-5.9-1.5s-3.1-2.3-4.2-4s-1.5-3.6-1.5-5.7c0-2.1,0.5-4,1.5-5.6c1-1.7,2.4-3,4.2-4s3.7-1.4,5.9-1.4S141.7,39.9,143.5,40.9z
	 M134.7,45c-0.9,0.5-1.6,1.3-2.2,2.3s-0.8,2-0.8,3.2s0.3,2.3,0.8,3.2s1.3,1.7,2.2,2.3s1.9,0.8,2.9,0.8s2-0.3,2.9-0.8
	c0.9-0.6,1.6-1.3,2.1-2.3s0.8-2,0.8-3.2s-0.3-2.2-0.8-3.2s-1.2-1.7-2.1-2.3s-1.9-0.8-2.9-0.8C136.6,44.2,135.6,44.5,134.7,45z"/>
<path class="st0" d="M163.1,44.6c-1.3-0.4-2.4-0.6-3.3-0.6c-0.7,0-1.2,0.1-1.6,0.4c-0.4,0.3-0.6,0.6-0.6,1.1s0.2,0.9,0.5,1.2
	c0.4,0.3,0.8,0.6,1.3,0.8s1.3,0.4,2.3,0.8c1.5,0.4,2.7,0.9,3.7,1.3c1,0.4,1.8,1.1,2.5,2s1,2,1,3.5c0,1.4-0.4,2.6-1.1,3.7
	c-0.8,1-1.8,1.8-3.1,2.3s-2.8,0.8-4.4,0.8c-1.8,0-3.5-0.3-5.3-0.9c-0.3-0.1-0.6-0.2-1-0.4c-2.1-0.9-3-3.4-2-5.5l0.5-1.1
	c1.1,1,2.4,1.8,3.8,2.4s2.8,0.9,3.9,0.9c0.8,0,1.5-0.1,2-0.5c0.5-0.3,0.7-0.8,0.7-1.3s-0.2-1-0.6-1.3c-0.4-0.3-0.8-0.5-1.3-0.7
	s-1.3-0.4-2.3-0.7c-1.5-0.4-2.7-0.8-3.6-1.2c-1-0.4-1.8-1-2.5-1.9s-1-2-1-3.4c0-1.3,0.4-2.5,1.1-3.5c0.7-1,1.7-1.8,3-2.3
	s2.8-0.8,4.5-0.8c1.5,0,3.1,0.2,4.6,0.7h0.1c2.2,0.6,3.2,3.1,2.3,5.2l-0.5,1C165.6,45.6,164.4,45,163.1,44.6z"/>
<path class="st0" d="M175.3,39.8h2v21.5h-5.6V43.4C171.7,41.4,173.4,39.8,175.3,39.8z"/>
<path class="st0" d="M192.6,44.6c-1.3-0.4-2.4-0.6-3.3-0.6c-0.7,0-1.2,0.1-1.6,0.4c-0.4,0.3-0.6,0.6-0.6,1.1s0.2,0.9,0.5,1.2
	c0.4,0.3,0.8,0.6,1.3,0.8s1.3,0.4,2.3,0.8c1.5,0.4,2.7,0.9,3.7,1.3c1,0.4,1.8,1.1,2.5,2s1,2,1,3.5c0,1.4-0.4,2.6-1.1,3.7
	c-0.8,1-1.8,1.8-3.1,2.3s-2.8,0.8-4.4,0.8c-1.8,0-3.5-0.3-5.3-0.9c-0.4-0.1-0.7-0.3-1.1-0.4c-2-0.9-2.9-3.3-1.9-5.3l0.6-1.2
	c1.1,1,2.4,1.8,3.8,2.4s2.8,0.9,3.9,0.9c0.8,0,1.5-0.1,2-0.5c0.5-0.3,0.7-0.8,0.7-1.3s-0.2-1-0.6-1.3c-0.4-0.3-0.8-0.5-1.3-0.7
	s-1.3-0.4-2.3-0.7c-1.5-0.4-2.7-0.8-3.6-1.2c-1-0.4-1.8-1-2.5-1.9s-1-2-1-3.4c0-1.3,0.4-2.5,1.1-3.5c0.7-1,1.7-1.8,3-2.3
	s2.8-0.8,4.5-0.8c1.5,0,3.1,0.2,4.6,0.7l0,0c2.2,0.6,3.3,3.1,2.4,5.2l-0.5,1C195.2,45.6,193.9,45,192.6,44.6z"/>
<path class="st0" d="M205,39.8h2.4l6.2,12.5l4.8-9.8c0.9-1.7,2.6-2.8,4.5-2.8h3v21.5h-5V47.6l-5.5,11.5h-3.6l-5.5-11.5v13.6h-5V43.5
	C201.3,41.4,202.9,39.8,205,39.8z"/>
<polygon class="st1" points="110.8,0 121.4,0 126.7,9.2 121.4,18.4 110.8,18.4 105.4,9.2 "/>
<polygon class="st2" points="93.2,49.8 103.8,49.8 109.1,59.1 103.8,68.2 93.2,68.2 87.9,59.1 "/>
<polygon class="st3" points="93.2,10 103.8,10 109.1,19.2 103.8,28.4 93.2,28.4 87.9,19.2 "/>
<polygon class="st2" points="75.6,39.9 86.2,39.9 91.5,49.1 86.2,58.3 75.6,58.3 70.3,49.1 "/>
<polygon class="st3" points="75.6,19.9 86.2,19.9 91.5,29.1 86.2,38.3 75.6,38.3 70.3,29.1 "/>
<polygon class="st0" points="58,69.8 68.6,69.8 74,79 68.6,88.2 58,88.2 52.7,79 "/>
<polygon class="st2" points="58,49.8 68.6,49.8 74,59.1 68.6,68.2 58,68.2 52.7,59.1 "/>
<polygon class="st3" points="58,29.9 68.6,29.9 74,39.1 68.6,48.3 58,48.3 52.7,39.1 "/>
<polygon class="st3" points="58,10 68.6,10 74,19.2 68.6,28.4 58,28.4 52.7,19.2 "/>
<polygon class="st0" points="40.5,79.8 51.1,79.8 56.4,89 51.1,98.2 40.5,98.2 35.2,89 "/>
<polygon class="st0" points="40.5,59.8 51.1,59.8 56.4,69 51.1,78.2 40.5,78.2 35.2,69 "/>
<polygon class="st2" points="40.5,39.9 51.1,39.9 56.4,49.1 51.1,58.3 40.5,58.3 35.2,49.1 "/>
<polygon class="st0" points="22.9,69.8 33.5,69.8 38.8,79 33.5,88.2 22.9,88.2 17.6,79 "/>
<polygon class="st2" points="22.9,49.8 33.5,49.8 38.8,59.1 33.5,68.2 22.9,68.2 17.6,59.1 "/>
<polygon class="st3" points="22.9,29.9 33.5,29.9 38.8,39.1 33.5,48.3 22.9,48.3 17.6,39.1 "/>
<polygon class="st0" points="5.3,79.8 15.9,79.8 21.2,89 15.9,98.2 5.3,98.2 0,89 "/>
<polygon class="st1" points="5.3,0 15.9,0 21.2,9.2 15.9,18.4 5.3,18.4 0,9.2 "/>
</svg>
